<?xml version="1.0" standalone="no"?><!DOCTYPE svg PUBLIC "-//W3C//DTD SVG 1.1//EN" "http://www.w3.org/Graphics/SVG/1.1/DTD/svg11.dtd"><svg t="1734578480359" class="icon" viewBox="0 0 1024 1024" version="1.1" xmlns="http://www.w3.org/2000/svg" p-id="6496" width="128" height="128" xmlns:xlink="http://www.w3.org/1999/xlink"><path d="M644.977209 696.394524c16.961991 0 30.713173-13.751182 30.713173-30.713173 0-16.963698-13.751182-30.713173-30.713173-30.713173-16.963698 0-30.713173 13.749476-30.713173 30.713173-0.000569 16.961991 13.748907 30.713173 30.713173 30.713173z m-81.902365 0c16.961991 0 30.713173-13.751182 30.713174-30.713173 0-16.963698-13.751182-30.713173-30.713174-30.713173s-30.713173 13.749476-30.713173 30.713173c0 16.961991 13.751751 30.713173 30.713173 30.713173z m163.80416 0c16.961991 0 30.713173-13.751182 30.713174-30.713173 0-16.963698-13.751182-30.713173-30.713174-30.713173s-30.713173 13.749476-30.713173 30.713173c0 16.961991 13.751182 30.713173 30.713173 30.713173zM819.016249 0.226987H204.754489C91.670756 0.226987 0 91.897742 0 204.983751v614.259485C0 932.329244 91.670756 1024 204.754489 1024h614.26176c113.083733 0 204.756764-91.670756 204.756764-204.756764V204.983751c0-113.086009-91.673031-204.756764-204.756764-204.756764z m20.477724 696.167537c0 33.925689-27.502364 61.426347-61.426346 61.426347H245.705387c-33.925689 0-61.426347-27.500658-61.426347-61.426347V430.213689h655.214933v266.180835z m0-307.131733H184.27904v-40.953173c0-33.923982 27.500658-61.426347 61.426347-61.426347h532.361671c33.923982 0 61.426347 27.502364 61.426346 61.426347v40.953173z" fill="#FF9F38" p-id="6497"></path></svg>