<?xml version="1.0" standalone="no"?><!DOCTYPE svg PUBLIC "-//W3C//DTD SVG 1.1//EN" "http://www.w3.org/Graphics/SVG/1.1/DTD/svg11.dtd"><svg t="1734578743088" class="icon" viewBox="0 0 1024 1024" version="1.1" xmlns="http://www.w3.org/2000/svg" p-id="2291" width="128" height="128" xmlns:xlink="http://www.w3.org/1999/xlink"><path d="M891.380364 0h-764.043637C57.285818 0 0 57.297455 0 127.336727v764.043637c0 70.050909 57.297455 127.336727 127.336727 127.336727h764.043637c70.050909 0 127.336727-57.297455 127.336727-127.336727v-764.043637C1018.717091 57.285818 961.419636 0 891.380364 0z m-382.021819 783.150545c-44.567273 0-82.781091-6.376727-120.96-19.118545-25.472 12.741818-63.674182 44.567273-76.404363 50.944-25.472 12.730182-19.118545-12.741818-19.118546-12.741818l12.741819-76.404364C229.213091 674.909091 184.634182 592.128 184.634182 502.993455c0-159.185455 146.443636-286.510545 324.724363-286.510546 108.253091 0 210.094545 50.932364 267.403637 120.971636L458.437818 483.886545s-25.472 12.741818-50.944-6.353454l-50.932363-38.202182s-38.202182-31.848727-19.10691 19.083636l50.932364 114.618182s6.376727 31.825455 44.578909 12.730182c31.848727-12.730182 267.403636-159.162182 369.28-216.482909 19.118545 38.202182 31.825455 82.781091 31.825455 127.348364 0 152.808727-146.420364 286.522182-324.701091 286.522181z" fill="#48B338" p-id="2292"></path></svg>