<?xml version="1.0" standalone="no"?><!DOCTYPE svg PUBLIC "-//W3C//DTD SVG 1.1//EN" "http://www.w3.org/Graphics/SVG/1.1/DTD/svg11.dtd"><svg t="1584628399022" class="icon" viewBox="0 0 1024 1024" version="1.1" xmlns="http://www.w3.org/2000/svg" p-id="4561" width="128" height="128" xmlns:xlink="http://www.w3.org/1999/xlink"><defs><style type="text/css"></style></defs><path d="M512 0C229.003636 0 0 229.003636 0 512s229.003636 512 512 512 512-229.003636 512-512S794.996364 0 512 0z m210.385455 641.396364c-7.447273 9.309091-26.996364-1.861818-41.89091-32.581819-3.723636 13.963636-13.032727 36.305455-34.443636 64.232728 35.374545 8.378182 44.683636 42.821818 33.512727 61.44-8.378182 13.032727-26.996364 24.203636-59.578181 24.203636-58.647273 0-83.781818-15.825455-95.883637-26.996364-1.861818-2.792727-5.585455-3.723636-10.24-3.723636-4.654545 0-7.447273 0.930909-10.24 3.723636-11.170909 11.170909-37.236364 26.996364-95.883636 26.996364-32.581818 0-52.130909-11.170909-59.578182-24.203636-12.101818-18.618182-1.861818-53.061818 33.512727-61.44-20.48-27.927273-29.789091-50.269091-34.443636-64.232728-13.963636 30.72-34.443636 42.821818-41.890909 32.581819-5.585455-8.378182-8.378182-26.065455-7.447273-38.167273 3.723636-46.545455 34.443636-85.643636 53.061818-106.123636-2.792727-5.585455-8.378182-40.029091 14.894546-63.301819v-1.861818c0-92.16 65.163636-158.254545 148.014545-158.254545 81.92 0 148.014545 66.094545 148.014546 158.254545v1.861818c23.272727 23.272727 17.687273 57.716364 14.894545 63.301819 17.687273 20.48 49.338182 59.578182 53.061818 106.123636 0.930909 12.101818-0.930909 29.789091-7.447272 38.167273z" fill="#30A5DD" p-id="4562"></path></svg>